<?xml version="1.0"?>
<svg xmlns="http://www.w3.org/2000/svg" height="512px" viewBox="0 0 60 60" width="512px" class=""><g><g id="Page-1" fill="none" fill-rule="evenodd"><g id="034---Give-Rental-Car" fill-rule="nonzero"><path id="Shape" d="m45 30.5c-.0102472.1665092-.0102472.3334908 0 .5h-13c.0102472-.1665092.0102472-.3334908 0-.5.0052705-1.3623201-.6137748-2.6519978-1.68-3.5h16.36c-1.0662252.8480022-1.6852705 2.1376799-1.68 3.5z" fill="#e8edfc" data-original="#E8EDFC" class="active-path" style="fill:#FEFFFF" data-old_color="#e8edfc"/><path id="Shape" d="m59 29c0 1.1045695-.8954305 2-2 2h-3c.0102472-.1665092.0102472-.3334908 0-.5.0052705-1.3623201-.6137748-2.6519978-1.68-3.5h4.68c1.1045695 0 2 .8954305 2 2z" fill="#e8edfc" data-original="#E8EDFC" class="active-path" style="fill:#FEFFFF" data-old_color="#e8edfc"/><path id="Shape" d="m23 30.5c-.0102472.1665092-.0102472.3334908 0 .5h-4c-1.1045695 0-2-.8954305-2-2s.8954305-2 2-2h5.68c-1.0662252.8480022-1.6852705 2.1376799-1.68 3.5z" fill="#e8edfc" data-original="#E8EDFC" class="active-path" style="fill:#FEFFFF" data-old_color="#e8edfc"/><path id="Shape" d="m32 30.5c.0102472.1665092.0102472.3334908 0 .5 0 2.4852814-2.0147186 4.5-4.5 4.5s-4.5-2.0147186-4.5-4.5c-.0102472-.1665092-.0102472-.3334908 0-.5 0-2.4852814 2.0147186-4.5 4.5-4.5s4.5 2.0147186 4.5 4.5z" fill="#a4c2f7" data-original="#A4C2F7" class="" style="fill:#DEF2F1" data-old_color="#a4c2f7"/><path id="Shape" d="m30.32 27c-.7955785-.650294-1.7924724-1.0038025-2.82-1-.5113436-.001557-1.0190102.0864385-1.5.26.479434.1685841.9260377.4189528 1.32.74 1.0662252.8480022 1.6852705 2.1376799 1.68 3.5.0102472.1665092.0102472.3334908 0 .5-.1962835 1.718136-1.3639102 3.1698851-3 3.73.4803788.1769693.9880633.2683525 1.5.27 2.3024309.014252 4.2442135-1.711777 4.5-4 .0102472-.1665092.0102472-.3334908 0-.5.0052705-1.3623201-.6137748-2.6519978-1.68-3.5z" fill="#7facfa" data-original="#7FACFA" class="" style="fill:#98D8D5" data-old_color="#7facfa"/><path id="Shape" d="m54 30.5c.0102472.1665092.0102472.3334908 0 .5 0 2.4852814-2.0147186 4.5-4.5 4.5s-4.5-2.0147186-4.5-4.5c-.0102472-.1665092-.0102472-.3334908 0-.5 0-2.4852814 2.0147186-4.5 4.5-4.5s4.5 2.0147186 4.5 4.5z" fill="#a4c2f7" data-original="#A4C2F7" class="" style="fill:#DEF2F1" data-old_color="#a4c2f7"/><path id="Shape" d="m52.32 27c-.7955785-.650294-1.7924724-1.0038025-2.82-1-.5113436-.001557-1.0190102.0864385-1.5.26.479434.1685841.9260377.4189528 1.32.74 1.0662252.8480022 1.6852705 2.1376799 1.68 3.5.0102472.1665092.0102472.3334908 0 .5-.1962835 1.718136-1.3639102 3.1698851-3 3.73.4803788.1769693.9880633.2683525 1.5.27 2.3024309.014252 4.2442135-1.711777 4.5-4 .0102472-.1665092.0102472-.3334908 0-.5.0052705-1.3623201-.6137748-2.6519978-1.68-3.5z" fill="#7facfa" data-original="#7FACFA" class="" style="fill:#98D8D5" data-old_color="#7facfa"/><path id="Shape" d="m57 21v6h-4.68c-1.6441093-1.3318776-3.9958907-1.3318776-5.64 0h-16.36c-1.6441093-1.3318776-3.9958907-1.3318776-5.64 0h-5.68v-4h3c1.1045695 0 2-.8954305 2-2v-2h31c1.1045695 0 2 .8954305 2 2z" fill="#e8edfc" data-original="#E8EDFC" class="active-path" style="fill:#FEFFFF" data-old_color="#e8edfc"/><path id="Shape" d="m55 19h-3c1.1045695 0 2 .8954305 2 2v6h3v-6c0-1.1045695-.8954305-2-2-2z" fill="#cad9fc" data-original="#CAD9FC" class="" style="fill:#DEF2F1" data-old_color="#cad9fc"/><path id="Shape" d="m24 19v2c0 1.1045695-.8954305 2-2 2h-3v-2c0-1.1045695.8954305-2 2-2z" fill="#e8edfc" data-original="#E8EDFC" class="active-path" style="fill:#FEFFFF" data-old_color="#e8edfc"/><path id="Shape" d="m40 11v8h-13l3.45-6.89c.33773-.6796577 1.031056-1.1095973 1.79-1.11z" fill="#a4c2f7" data-original="#A4C2F7" class="" style="fill:#DEF2F1" data-old_color="#a4c2f7"/><path id="Shape" d="m53 19h-13v-8h7.76c.758944.0004027 1.45227.4303423 1.79 1.11z" fill="#a4c2f7" data-original="#A4C2F7" class="" style="fill:#DEF2F1" data-old_color="#a4c2f7"/><path id="Shape" d="m49.55 12.11c-.33773-.6796577-1.031056-1.1095973-1.79-1.11h-3c.758944.0004027 1.45227.4303423 1.79 1.11l3.45 6.89h3z" fill="#7facfa" data-original="#7FACFA" class="" style="fill:#98D8D5" data-old_color="#7facfa"/><path id="Shape" d="m10 36v21c0 1.1045695-.8954305 2-2 2h-5c-1.1045695 0-2-.8954305-2-2v-21c0-1.1045695.8954305-2 2-2h5c1.1045695 0 2 .8954305 2 2z" fill="#e8edfc" data-original="#E8EDFC" class="active-path" style="fill:#FEFFFF" data-old_color="#e8edfc"/><path id="Shape" d="m8 34h-3c1.1045695 0 2 .8954305 2 2v21c0 1.1045695-.8954305 2-2 2h3c1.1045695 0 2-.8954305 2-2v-21c0-1.1045695-.8954305-2-2-2z" fill="#cad9fc" data-original="#CAD9FC" class="" style="fill:#DEF2F1" data-old_color="#cad9fc"/><path id="Shape" d="m57.68 45.57-18.74 11.43c-1.0988668.6603717-2.3579861 1.0062836-3.64 1l-25.57.0000841c.17625351-.3039237.26937666-.6488243.27-1.0000841v-21h2.8c2.0714875.0029748 4.0808028.7079977 5.7 2s3.6285125 1.9970252 5.7 2h5.23c1.7577186-.0003688 3.3865327.9222462 4.29 2.43l.09.15c.8520276 1.4251156.6253033 3.2471541-.55 4.42h2.35c.431998.000277.8610859-.0706746 1.27-.21l18.51-6.17c1.1289069-.3576453 2.3601528.0447226 3.06 1 .4545747.6154245.6300343 1.393361.4836428 2.1443304s-.6011976 1.4060439-1.2536428 1.8056696z" fill="#e8edfc" data-original="#E8EDFC" class="active-path" style="fill:#FEFFFF" data-old_color="#e8edfc"/><path id="Shape" d="m58.45 41.59c-.6998472-.9552774-1.9310931-1.3576453-3.06-1l-.75.25c.3164295.1777729.5923033.4195882.81.71.4719421.6183185.6577154 1.408594.5106792 2.1724182-.1470362.7638243-.6129176 1.4286563-1.2806792 1.8275818l-18.74 11.45c-1.0988668.6603717-2.3579861 1.0062836-3.64 1.0000841l3-.0000841c1.2820139.0062836 2.5411332-.3396283 3.64-1l18.74-11.43c.6615928-.399248 1.1230004-1.0601675 1.2697758-1.8188248s-.0348317-1.5439791-.4997758-2.1611752z" fill="#cad9fc" data-original="#CAD9FC" class="" style="fill:#DEF2F1" data-old_color="#cad9fc"/><path id="Shape" d="m17 3v3c.0029551 1.99080512-1.175394 3.79367927-3 4.59-.6323005.2698074-1.3125413.4092568-2 .41h-2c-.68745867-.0007432-1.3676995-.1401926-2-.41-1.824606-.79632073-3.00295511-2.59919488-3-4.59v-3c0-1.1045695.8954305-2 2-2h8c1.1045695 0 2 .8954305 2 2z" fill="#e8edfc" data-original="#E8EDFC" class="active-path" style="fill:#FEFFFF" data-old_color="#e8edfc"/><path id="Shape" d="m12.35 15.65c-.1905714.1944218-.1905714.5055782 0 .7l1.3 1.3c.1905714.1944218.1905714.5055782 0 .7l-1.3 1.3c-.1905714.1944218-.1905714.5055782 0 .7l1.5 1.5c.0976584.0940756.1519661.2244142.15.36v2.12c0 .2163702-.0701779.4269038-.2.6l-2 2.67c-.1888544.2518058-.4852427.4-.8.4s-.6111456-.1481942-.8-.4l-2-2.67c-.12982213-.1730962-.2-.3836298-.2-.6v-13.74c.6323005.2698074 1.31254133.4092568 2 .41h2c.6874587-.0007432 1.3676995-.1401926 2.0000516-.41l-.0000516 3.2c.0019661.1355858-.0523416.2659244-.15.36z" fill="#a4c2f7" data-original="#A4C2F7" class="" style="fill:#DEF2F1" data-old_color="#a4c2f7"/><path id="Shape" d="m4 57v-21c0-1.1045695.8954305-2 2-2h-3c-1.1045695 0-2 .8954305-2 2v21c0 1.1045695.8954305 2 2 2h3c-1.1045695 0-2-.8954305-2-2z" fill="#fff" data-original="#FFF" class="" data-old_color="#fff" style="fill:#FEFFFF"/><path id="Shape" d="m10 1h-3c-1.1045695 0-2 .8954305-2 2v3c-.00295511 1.99080512 1.175394 3.79367927 3 4.59v13.74c0 .44 0 .38 2.2 3.27.1888544.2518058.4852427.4.8.4s.6111456-.1481942.8-.4l.7-.93c-1.47-2-1.5-2-1.5-2.34v-13.74c-1.824606-.79632073-3.00295511-2.59919488-3-4.59v-3c0-1.1045695.8954305-2 2-2z" fill="#fff" data-original="#FFF" class="" data-old_color="#fff" style="fill:#FEFFFF"/><path id="Rectangle-path" d="m0 49h2v8h-2z" fill="#fff" data-original="#FFF" class="" data-old_color="#fff" style="fill:#FEFFFF"/><g fill="#428dff"><path id="Shape" d="m58 26.18v-5.18c0-1.6568542-1.3431458-3-3-3h-1.38l-3.17-6.34c-.5087974-1.0191576-1.5508986-1.66223863-2.69-1.66h-15.52c-1.1391014-.00223863-2.1812026.6408424-2.69 1.66l-3.17 6.34h-5.38c-1.6568542 0-3 1.3431458-3 3v5.18c-1.1957287.4227483-1.9964356 1.5517451-2 2.82 0 1.6568542 1.3431458 3 3 3h3.21c.6726816 2.3639856 2.83217 3.9947093 5.29 3.9947093s4.6173184-1.6307237 5.29-3.9947093h11.42c.6726816 2.3639856 2.83217 3.9947093 5.29 3.9947093s4.6173184-1.6307237 5.29-3.9947093h2.21c1.6568542 0 3-1.3431458 3-3-.0035644-1.2682549-.8042713-2.3972517-2-2.82zm-2-5.18v5h-3.35c-1.8882411-1.333707-4.4117589-1.333707-6.3 0h-5.35v-3c0-.5522847-.4477153-1-1-1s-1 .4477153-1 1v3h-8.35c-1.8882411-1.333707-4.4117589-1.333707-6.3 0h-4.35v-2h2c1.6568542 0 3-1.3431458 3-3v-1h30c.5522847 0 1 .4477153 1 1zm-23.61 7h12.22c-.3363971.6185951-.5439088 1.2989615-.61 2h-11c-.0660912-.7010385-.2736029-1.3814049-.61-2zm16.27-15.45 2.72 5.45h-10.38v-6.0000243l6.76.0000243c.3801569-.0026457.7289345.2104962.9.55zm-17.32 0c.1710655-.3395038.5198431-.5526457.9-.55l6.76-.0000243v6.0000243h-10.38zm-10.34 7.45h2v1c0 .5522847-.4477153 1-1 1h-2v-1c0-.5522847.4477153-1 1-1zm-3 9c.0037358-.2687063.1154643-.5246007.31-.71.1792338-.1890372.4295353-.2942364.69-.29h3.61c-.3363971.6185951-.5439088 1.2989615-.61 2h-3c-.5522847 0-1-.4477153-1-1zm9.5 5c-1.4156179 0-2.6918449-.8527476-3.2335784-2.160608s-.2422883-2.8132727.7587047-3.8142657 2.5064053-1.3004382 3.8142657-.7587047 2.160608 1.8179605 2.160608 3.2335784c0 1.9329966-1.5670034 3.5-3.5 3.5zm22 0c-1.9329966 0-3.5-1.5670034-3.5-3.5s1.5670034-3.5 3.5-3.5 3.5 1.5670034 3.5 3.5-1.5670034 3.5-3.5 3.5zm8.19-4.29c-.1792338.1890372-.4295353.2942364-.69.29h-2c-.0567748-.6989046-.2540479-1.3791568-.58-2h2.58c.5522847 0 1 .4477153 1 1-.0037358.2687063-.1154643.5246007-.31.71z" data-original="#428DFF" class="" style="fill:#2B7A78" data-old_color="#428DFF"/><path id="Shape" d="m33 24h2c.5522847 0 1-.4477153 1-1s-.4477153-1-1-1h-2c-.5522847 0-1 .4477153-1 1s.4477153 1 1 1z" data-original="#428DFF" class="" style="fill:#2B7A78" data-old_color="#428DFF"/><path id="Shape" d="m44 24h2c.5522847 0 1-.4477153 1-1s-.4477153-1-1-1h-2c-.5522847 0-1 .4477153-1 1s.4477153 1 1 1z" data-original="#428DFF" class="" style="fill:#2B7A78" data-old_color="#428DFF"/><circle id="Oval" cx="1" cy="53" r="1" data-original="#428DFF" class="" style="fill:#2B7A78" data-old_color="#428DFF"/><path id="Shape" d="m55.07 39.68-18.51 6.17c-.322445.1062216-.6605805.1569419-1 .15h-.56c.4753073-1.3021661.3394286-2.7490908-.37-3.94l-.09-.15c-1.0786504-1.7954291-3.0155029-2.8984116-5.11-2.91h-5.23c-1.8459227-.0016652-3.636742-.629157-5.08-1.78-1.7943586-1.4345656-4.0226767-2.2172976-6.32-2.22h-2c-.4202628-1.1888634-1.53909808-1.9880314-2.8-2h-5c-1.65685425 0-3 1.3431458-3 3v13c0 .5522847.44771525 1 1 1s1-.4477153 1-1v-13c0-.5522847.44771525-1 1-1h5c.55228475 0 1 .4477153 1 1v21c0 .5522847-.44771525 1-1 1h-5c-.55228475 0-1-.4477153-1-1s-.44771525-1-1-1-1 .4477153-1 1c0 1.6568542 1.34314575 3 3 3h5c.84808319-.0045533 1.65461528-.3678561 2.22-1h25.08c1.4683127.0031584 2.9085977-.4019217 4.16-1.17l18.74-11.41c.9009096-.5453756 1.5292916-1.4461776 1.73-2.48.2540461-1.3063199-.2051979-2.6492363-1.2059563-3.5264442-1.0007583-.877208-2.3922663-1.1565557-3.6540437-.7335558zm2.93 3.88c-.0923209.4844434-.3870042.9064589-.81 1.16l-18.77 11.41c-.9405776.5705402-2.0199091.8715076-3.12.87l-24.3.0000056v-20.0000056h1.8c1.8459227.0016652 3.636742.629157 5.08 1.78 1.7943586 1.4345656 4.0226767 2.2172976 6.32 2.22h5.23c1.4046545-.0004352 2.706603.7359438 3.43 1.94l.09.15c.5465163.9102246.4872087 2.0607922-.15 2.91h-6.07c-1.975323-.0004431-3.9065313.5841388-5.55 1.68l-.73.49c-.4021248.3239123-.4915129.9007244-.206288 1.3311547s.8512619.5729246 1.306288.3288453l.74-.49c1.3152215-.8752757 2.8601542-1.3415392 4.44-1.34h8.88c.5372144-.0012238 1.0707209-.089016 1.58-.26l18.52-6.17c.7127064-.2329111 1.4944632.0169287 1.94.62.3088544.3847852.4364485.884225.35 1.37z" data-original="#428DFF" class="" style="fill:#2B7A78" data-old_color="#428DFF"/><path id="Shape" d="m15 13.79v-2.6c1.8545042-1.070697 2.9978036-3.04860483 3-5.19v-3c0-1.65685425-1.3431458-3-3-3h-8c-1.65685425 0-3 1.34314575-3 3v3c.00219645 2.14139517 1.14549576 4.119303 3 5.19v13.14c0 .4327404.14035574.8538077.4 1.2l2 2.67c.37770876.5036117.9704854.8 1.6.8s1.2222912-.2963883 1.6-.8l2-2.67c.2596443-.3461923.4-.7672596.4-1.2v-2.12c-.0003501-.3976907-.158615-.7789653-.44-1.06l-1.15-1.15.94-.94c.2833721-.2799339.442861-.6616751.442861-1.06s-.1594889-.7800661-.442861-1.06l-.94-.94 1.15-1.15c.281385-.2810347.4396499-.6623093.44-1.06zm-9-10.79c0-.55228475.44771525-1 1-1h8c.5522847 0 1 .44771525 1 1v3c0 2.209139-1.790861 4-4 4h-2c-2.209139 0-4-1.790861-4-4zm5.65 14.06.94.94-.94.94c-.2833721.2799339-.442861.6616751-.442861 1.06s.1594889.7800661.442861 1.06l1.35 1.35v1.92l-2 2.67-2-2.67v-12.42c.3305842.055195.66487297.085281 1 .09h2c.335127-.004719.6694158-.034805 1-.09v1.68l-1.35 1.35c-.2833721.2799339-.442861.6616751-.442861 1.06s.1594889.7800661.442861 1.06z" data-original="#428DFF" class="" style="fill:#2B7A78" data-old_color="#428DFF"/><path id="Shape" d="m10 6h2c.5522847 0 1-.44771525 1-1s-.4477153-1-1-1h-2c-.55228475 0-1 .44771525-1 1s.44771525 1 1 1z" data-original="#428DFF" class="" style="fill:#2B7A78" data-old_color="#428DFF"/></g></g></g></g> </svg>
